<svg xmlns="http://www.w3.org/2000/svg" width="612.08" height="612.08" fill="#d1d1d1" viewBox="0 0 612.08 612.08">
  <path d="M237.927 0C106.555 0 .035 106.52.035 237.893s106.52 237.893 237.893 237.893c50.518 0 97.368-15.757 135.88-42.597l.027-.03 176.432 176.434c3.274 3.274 8.48 3.358 11.84 0l47.55-47.55c3.274-3.275 3.106-8.704-.028-11.84L433.222 373.8c26.84-38.54 42.597-85.39 42.597-135.907C475.82 106.52 369.3 0 237.927 0zm0 419.81c-100.475 0-181.918-81.442-181.918-181.917S137.452 55.975 237.926 55.975s181.918 81.443 181.918 181.918S338.402 419.81 237.927 419.81z"/>
</svg>
